<?xml version="1.0" standalone="no"?>
<!DOCTYPE svg PUBLIC "-//W3C//DTD SVG 20010904//EN"
 "http://www.w3.org/TR/2001/REC-SVG-20010904/DTD/svg10.dtd">
<svg version="1.0" xmlns="http://www.w3.org/2000/svg"
 width="300.000000pt" height="156.000000pt" viewBox="0 0 300.000000 156.000000"
 preserveAspectRatio="xMidYMid meet">
<metadata>
Created by potrace 1.10, written by Peter Selinger 2001-2011
</metadata>
<g transform="translate(0.000000,156.000000) scale(0.100000,-0.100000)"
fill="#000000" stroke="none">
<path d="M591 1518 c-1 -15 -11 -18 -71 -18 l-70 0 0 -635 0 -635 69 0 c58 0
70 -3 74 -17 4 -17 5 -17 6 0 1 16 17 17 191 17 162 0 190 -2 190 -15 0 -8 5
-15 10 -15 6 0 10 7 10 15 0 13 28 15 189 15 172 0 190 -2 194 -17 4 -17 5
-17 6 0 1 16 17 17 195 17 177 0 195 -2 199 -18 4 -16 5 -16 6 1 1 16 17 17
190 17 172 0 190 -2 194 -18 4 -16 5 -16 6 1 1 16 17 17 195 17 177 0 195 -2
199 -17 4 -17 5 -17 6 0 1 14 11 17 71 17 l70 0 0 635 0 635 -69 0 c-58 0 -70
3 -74 18 -4 16 -5 16 -6 0 -1 -17 -17 -18 -195 -18 -177 0 -195 2 -199 18 -4
16 -5 16 -6 0 -1 -17 -17 -18 -190 -18 -172 0 -190 2 -194 18 -4 16 -5 16 -6
0 -1 -17 -17 -18 -195 -18 -177 0 -195 2 -199 18 -4 16 -5 16 -6 0 -1 -17 -17
-18 -191 -18 -162 0 -190 2 -190 15 0 8 -4 15 -10 15 -5 0 -10 -7 -10 -15 0
-13 -28 -15 -189 -15 -172 0 -190 2 -194 18 -4 16 -5 16 -6 0z m-1 -653 l0
-625 -65 0 -65 0 0 625 0 625 65 0 65 0 0 -625z m2120 0 l0 -625 -1055 0
-1055 0 0 45 c0 25 5 45 10 45 6 0 5 8 -2 20 -10 15 -10 25 -2 37 8 12 8 23 1
34 -15 24 -2 48 22 42 12 -3 21 -1 21 6 0 6 -11 11 -25 11 -20 0 -25 5 -25 26
0 23 3 25 25 20 19 -5 25 -2 25 9 0 11 -6 14 -25 9 -23 -6 -25 -3 -25 26 0 32
0 33 41 26 31 -5 40 -3 37 6 -3 8 -18 12 -41 10 -34 -3 -37 -2 -37 24 0 26 2
26 45 22 32 -4 45 -2 45 7 0 9 -13 11 -45 7 l-45 -5 0 33 0 33 75 -5 c52 -4
75 -2 72 6 -2 7 -30 10 -75 8 l-72 -4 0 27 0 26 92 -2 c55 -1 93 2 95 8 3 7
-31 10 -92 9 l-95 -1 0 28 0 29 115 -3 c73 -3 115 0 115 6 0 6 -42 9 -115 6
l-115 -3 0 31 0 31 140 -3 c77 -1 140 1 140 6 0 4 -63 7 -140 7 l-140 0 0 25
0 26 172 -1 c95 -1 174 2 175 7 2 4 -76 7 -172 5 l-175 -4 0 32 0 31 220 -3
c121 -2 219 1 217 6 -1 4 -100 7 -220 7 l-217 -2 0 26 0 26 297 -1 c164 -1
299 2 300 7 2 4 -132 7 -297 5 l-300 -3 0 31 0 31 315 -3 c205 -2 315 0 315 7
0 7 -110 9 -315 7 l-315 -3 0 26 0 25 402 0 c272 -1 404 3 406 10 3 7 -125 10
-402 10 l-406 0 0 25 0 25 655 -2 c432 -2 655 0 655 7 0 7 -223 9 -655 7
l-655 -2 0 30 0 30 910 -2 c501 -2 909 0 907 5 -1 4 -410 7 -910 7 l-907 0 0
25 0 25 992 0 c546 0 994 3 995 7 2 4 -445 7 -992 5 -884 -2 -995 -1 -995 13
0 13 118 15 1055 15 l1055 0 0 -625z"/>
<path d="M210 1460 c0 -15 7 -20 25 -20 19 0 25 5 25 22 0 21 0 21 -14 2 -8
-10 -18 -15 -22 -11 -5 4 -2 12 6 17 13 8 12 10 -2 10 -11 0 -18 -8 -18 -20z"/>
<path d="M313 1473 c-22 -4 -33 -33 -13 -33 6 0 10 6 10 13 0 8 3 8 8 1 11
-15 82 -17 82 -2 0 9 3 8 10 -2 8 -13 10 -12 10 3 0 10 -8 17 -20 17 -11 0
-20 -6 -20 -12 0 -7 -5 -5 -11 5 -10 17 -15 18 -56 10z"/>
<path d="M295 1400 c-3 -6 -3 -14 0 -20 9 -14 42 -12 48 3 4 9 8 8 17 -3 9
-11 13 -12 17 -2 2 6 9 12 14 12 6 0 7 -4 4 -10 -3 -5 1 -10 9 -10 22 0 20 30
-1 31 -10 1 -37 3 -60 5 -23 2 -45 -1 -48 -6z"/>
<path d="M280 1333 c0 -12 5 -25 10 -28 6 -3 10 0 10 7 0 9 3 9 10 -2 9 -13
10 -13 10 0 0 8 -5 22 -10 30 -9 13 -10 13 -10 0 0 -13 -1 -13 -10 0 -8 12
-10 11 -10 -7z"/>
<path d="M360 1326 c0 -7 10 -16 23 -20 34 -9 37 -8 37 14 0 11 -4 20 -10 20
-5 0 -10 -8 -10 -17 -1 -17 -1 -17 -11 0 -12 20 -29 23 -29 3z"/>
<path d="M330 1260 c0 -9 10 -16 25 -16 14 -1 25 2 25 7 0 5 5 9 11 9 5 0 7
-4 4 -10 -3 -5 1 -10 9 -10 22 0 20 30 -1 31 -67 5 -73 4 -73 -11z"/>
<path d="M243 1205 c-3 -9 -2 -19 2 -23 11 -11 55 -9 55 3 0 5 5 3 10 -5 9
-13 10 -13 10 0 0 8 -5 22 -10 30 -7 11 -10 11 -10 2 0 -9 -5 -10 -19 -2 -26
13 -31 13 -38 -5z"/>
<path d="M324 1207 c3 -10 6 -23 6 -28 0 -6 12 -9 28 -7 15 2 27 9 27 17 0 21
-25 26 -26 4 0 -16 -1 -16 -9 2 -5 11 -9 16 -9 10 -1 -5 -6 -3 -12 5 -9 12
-10 12 -5 -3z"/>
<path d="M305 1132 c-3 -8 -5 -15 -5 -16 0 -2 27 -4 60 -5 52 -2 60 0 60 16 0
15 -9 18 -55 18 -36 0 -56 -4 -60 -13z"/>
<path d="M294 1073 c3 -8 6 -20 6 -26 0 -8 3 -7 9 2 6 9 11 10 15 2 11 -17 66
-14 66 3 0 19 -21 26 -44 14 -12 -7 -16 -7 -12 0 3 5 -6 12 -20 15 -19 3 -24
1 -20 -10z"/>
<path d="M340 1001 c0 -10 6 -18 13 -18 6 0 21 -4 31 -9 14 -5 17 -4 12 4 -5
8 -2 10 8 6 12 -4 16 0 16 16 0 20 -2 21 -17 9 -9 -8 -14 -9 -10 -3 4 7 -5 11
-23 12 -22 0 -30 -4 -30 -17z"/>
<path d="M260 935 c0 -21 29 -31 51 -16 12 7 19 7 19 1 0 -5 7 -10 15 -10 13
0 14 4 5 20 -14 25 -90 29 -90 5z"/>
<path d="M360 931 c0 -16 18 -22 23 -9 4 10 6 10 6 1 1 -18 31 -16 31 2 0 10
-10 15 -30 15 -16 0 -30 -4 -30 -9z"/>
<path d="M307 883 c-4 -3 -7 -16 -7 -27 0 -17 2 -18 10 -6 8 13 11 13 19 1 5
-7 14 -12 20 -10 8 3 6 11 -4 27 -17 23 -27 27 -38 15z"/>
<path d="M364 868 c-4 -5 -1 -15 5 -21 8 -8 11 -7 11 3 0 11 3 11 12 2 17 -17
28 -15 28 7 0 13 -7 19 -25 19 -14 0 -28 -5 -31 -10z"/>
<path d="M240 802 c0 -14 11 -17 70 -20 42 -1 70 2 70 8 0 5 5 10 11 10 5 0 7
-4 4 -10 -3 -5 1 -10 9 -10 9 0 16 7 16 15 0 9 -9 15 -25 15 -14 0 -25 -5 -25
-12 0 -6 -6 -4 -13 6 -9 13 -20 16 -40 11 -15 -4 -27 -12 -27 -19 0 -6 -5 -3
-11 7 -13 22 -39 22 -39 -1z"/>
<path d="M271 750 c-29 -18 -4 -38 49 -38 36 -1 49 2 44 11 -5 8 -3 8 7 0 19
-19 49 -16 49 5 0 13 -10 18 -42 19 -22 2 -48 -3 -57 -10 -12 -10 -13 -9 -6 3
4 8 5 12 0 8 -4 -4 -13 -4 -19 2 -7 5 -18 5 -25 0z"/>
<path d="M282 668 c3 -25 25 -36 25 -13 0 8 -5 15 -11 15 -6 0 -4 5 4 10 13 8
12 10 -3 10 -13 0 -17 -6 -15 -22z"/>
<path d="M320 663 c0 -15 2 -16 10 -3 5 8 10 10 10 4 0 -19 28 -24 45 -8 13
14 15 14 15 -1 0 -9 5 -13 10 -10 6 3 10 13 10 21 0 17 -31 19 -49 2 -11 -10
-13 -10 -7 0 5 8 -1 12 -18 12 -18 0 -26 -5 -26 -17z"/>
<path d="M313 613 c-13 -2 -23 -11 -23 -19 0 -17 16 -19 23 -1 4 10 6 10 6 0
1 -19 19 -16 24 5 4 16 5 16 6 0 1 -21 51 -26 51 -5 0 8 4 7 10 -3 8 -13 10
-12 10 3 0 10 -8 17 -20 17 -11 0 -20 -6 -20 -12 0 -7 -5 -5 -11 5 -10 17 -15
18 -56 10z"/>
<path d="M183 544 c-7 -20 9 -36 30 -29 19 8 30 32 16 40 -5 4 -14 -4 -19 -17
-11 -23 -11 -23 -6 0 5 25 -11 30 -21 6z"/>
<path d="M293 553 c-7 -3 -13 -12 -13 -22 0 -13 7 -17 28 -15 40 3 56 8 64 19
5 7 8 6 8 0 0 -6 9 -11 20 -12 13 -1 20 4 20 16 0 15 -6 18 -32 14 -18 -2 -41
-4 -51 -4 -10 0 -15 -5 -11 -12 3 -7 0 -5 -8 4 -7 9 -19 14 -25 12z"/>
<path d="M258 472 c-5 -16 1 -19 43 -21 37 -1 49 2 49 13 0 10 -10 14 -30 14
-18 -1 -27 -5 -24 -12 3 -6 -1 -3 -9 7 -18 22 -23 22 -29 -1z"/>
<path d="M378 482 c-19 -4 -25 -32 -8 -32 6 0 10 5 10 10 0 6 5 10 11 10 5 0
7 -4 4 -10 -3 -5 1 -10 9 -10 19 0 21 26 4 32 -7 2 -21 3 -30 0z"/>
<path d="M391 422 c-1 -7 -5 -10 -11 -7 -5 3 -18 1 -29 -5 -13 -7 -22 -7 -26
0 -3 5 -11 10 -16 10 -6 0 -7 -6 -3 -12 6 -10 4 -10 -7 -2 -25 18 -59 15 -59
-6 0 -16 6 -19 30 -16 16 2 31 -2 34 -8 3 -7 7 -8 13 -1 4 6 17 10 28 9 11 0
27 3 36 7 9 5 21 3 27 -3 9 -9 12 -5 12 18 0 20 -3 25 -9 15 -7 -11 -9 -11
-14 0 -4 11 -6 11 -6 1z"/>
<path d="M340 342 c0 -14 9 -19 40 -20 34 -2 40 0 40 18 0 17 -6 20 -40 20
-32 0 -40 -4 -40 -18z"/>
<path d="M100 265 c0 -16 2 -17 10 -5 5 8 10 10 10 5 0 -15 40 -16 40 -2 0 8
3 8 9 -1 4 -8 12 -14 16 -14 4 0 12 6 16 14 7 10 9 10 9 1 0 -7 11 -13 25 -13
16 0 25 6 25 15 0 8 -4 15 -10 15 -5 0 -10 -4 -10 -10 0 -5 -4 -10 -10 -10 -5
0 -10 6 -10 13 0 11 -11 12 -45 7 -24 -4 -42 -3 -39 1 2 4 -5 7 -16 6 -13 -1
-20 -8 -20 -22z"/>
<path d="M370 280 c-8 -5 -17 -7 -21 -4 -4 2 -9 -2 -12 -10 -6 -16 40 -20 49
-4 3 5 12 4 20 -3 11 -9 14 -8 14 8 0 20 -27 27 -50 13z"/>
<path d="M580 150 c0 -11 7 -20 15 -20 8 0 15 9 15 20 0 11 -7 20 -15 20 -8 0
-15 -9 -15 -20z"/>
<path d="M976 155 c16 -13 16 -14 2 -9 -10 3 -18 1 -18 -5 0 -6 14 -11 30 -11
23 0 30 4 30 20 0 16 -7 20 -32 20 -30 0 -31 -1 -12 -15z"/>
<path d="M1750 150 c0 -16 7 -20 30 -20 23 0 30 4 30 20 0 16 -7 20 -30 20
-23 0 -30 -4 -30 -20z"/>
<path d="M2177 155 c-8 -18 11 -31 25 -17 11 11 3 32 -12 32 -4 0 -10 -7 -13
-15z"/>
<path d="M2584 159 c-10 -17 13 -36 27 -22 12 12 4 33 -11 33 -5 0 -12 -5 -16
-11z"/>
<path d="M1420 46 c0 -29 30 -38 31 -8 0 14 2 14 9 -3 9 -20 9 -20 10 0 1 20
1 20 10 0 8 -19 9 -19 9 3 1 15 -5 22 -18 22 -11 0 -26 3 -35 6 -12 5 -16 0
-16 -20z"/>
<path d="M1581 61 c-7 -5 -28 -7 -47 -5 -30 2 -34 0 -34 -22 0 -20 3 -23 18
-17 9 5 26 8 37 8 11 0 23 6 27 15 5 12 7 12 7 -2 1 -14 10 -18 36 -18 26 0
35 4 36 18 0 14 2 14 7 2 4 -9 23 -16 45 -17 32 -2 38 0 35 15 -5 24 -95 28
-101 4 -4 -15 -5 -15 -6 1 0 9 -5 17 -11 17 -5 0 -14 -8 -20 -17 -11 -17 -11
-17 -6 -1 6 21 -5 30 -23 19z"/>
</g>
</svg>
